<?xml version="1.0" encoding="UTF-8"?>
<svg xmlns="http://www.w3.org/2000/svg" xmlns:xlink="http://www.w3.org/1999/xlink" width="375pt" height="374.999991pt" viewBox="0 0 375 374.999991" version="1.2">
<defs>
<clipPath id="clip1">
  <path d="M 294 59.53125 L 318.519531 59.53125 L 318.519531 70 L 294 70 Z M 294 59.53125 "/>
</clipPath>
<clipPath id="clip2">
  <path d="M 56.769531 59.53125 L 237 59.53125 L 237 70 L 56.769531 70 Z M 56.769531 59.53125 "/>
</clipPath>
<clipPath id="clip3">
  <path d="M 56.769531 94 L 173 94 L 173 366.28125 L 56.769531 366.28125 Z M 56.769531 94 "/>
</clipPath>
<clipPath id="clip4">
  <path d="M 202 94 L 318.519531 94 L 318.519531 312 L 202 312 Z M 202 94 "/>
</clipPath>
</defs>
<g id="surface1">
<rect x="0" y="0" width="375" height="374.999991" style="fill:rgb(100%,100%,100%);fill-opacity:1;stroke:none;"/>
<rect x="0" y="0" width="375" height="374.999991" style="fill:rgb(100%,100%,100%);fill-opacity:1;stroke:none;"/>
<rect x="0" y="0" width="375" height="374.999991" style="fill:rgb(100%,100%,100%);fill-opacity:1;stroke:none;"/>
<path style=" stroke:none;fill-rule:nonzero;fill:rgb(0%,0%,0%);fill-opacity:1;" d="M 186.144531 1.960938 C 183.097656 1.960938 180.054688 2.035156 177.011719 2.183594 C 173.96875 2.332031 170.929688 2.558594 167.898438 2.855469 C 164.867188 3.15625 161.84375 3.527344 158.832031 3.972656 C 155.820312 4.421875 152.816406 4.941406 149.828125 5.535156 C 146.84375 6.128906 143.871094 6.796875 140.914062 7.539062 C 137.960938 8.277344 135.023438 9.089844 132.109375 9.976562 C 129.195312 10.859375 126.304688 11.816406 123.433594 12.839844 C 120.566406 13.867188 117.726562 14.964844 114.910156 16.128906 C 112.097656 17.292969 109.3125 18.527344 106.558594 19.832031 C 103.804688 21.132812 101.082031 22.503906 98.398438 23.9375 C 95.710938 25.375 93.058594 26.875 90.449219 28.441406 C 87.835938 30.007812 85.261719 31.636719 82.726562 33.332031 C 80.195312 35.023438 77.707031 36.777344 75.257812 38.589844 C 72.8125 40.40625 70.410156 42.28125 68.054688 44.210938 C 65.699219 46.144531 63.394531 48.132812 61.136719 50.179688 C 58.878906 52.226562 56.675781 54.324219 54.519531 56.480469 C 52.367188 58.632812 50.265625 60.839844 48.222656 63.097656 C 46.175781 65.355469 44.1875 67.660156 42.253906 70.015625 C 40.320312 72.371094 38.445312 74.769531 36.632812 77.21875 C 34.816406 79.664062 33.0625 82.15625 31.371094 84.6875 C 29.679688 87.222656 28.050781 89.792969 26.484375 92.40625 C 24.917969 95.019531 23.414062 97.667969 21.980469 100.355469 C 20.542969 103.042969 19.175781 105.761719 17.871094 108.515625 C 16.570312 111.269531 15.335938 114.054688 14.167969 116.871094 C 13.003906 119.683594 11.90625 122.527344 10.882812 125.394531 C 9.855469 128.261719 8.898438 131.15625 8.015625 134.070312 C 7.132812 136.984375 6.320312 139.921875 5.578125 142.875 C 4.839844 145.832031 4.171875 148.800781 3.578125 151.789062 C 2.980469 154.777344 2.460938 157.777344 2.015625 160.792969 C 1.566406 163.804688 1.195312 166.828125 0.894531 169.859375 C 0.597656 172.890625 0.375 175.929688 0.222656 178.972656 C 0.0742188 182.015625 0 185.058594 0 188.105469 C 0 191.152344 0.0742188 194.195312 0.222656 197.238281 C 0.375 200.28125 0.597656 203.320312 0.894531 206.351562 C 1.195312 209.382812 1.566406 212.40625 2.015625 215.417969 C 2.460938 218.429688 2.980469 221.433594 3.578125 224.417969 C 4.171875 227.40625 4.839844 230.378906 5.578125 233.335938 C 6.320312 236.289062 7.132812 239.222656 8.015625 242.140625 C 8.898438 245.054688 9.855469 247.945312 10.882812 250.816406 C 11.90625 253.683594 13.003906 256.523438 14.167969 259.339844 C 15.335938 262.152344 16.570312 264.9375 17.871094 267.691406 C 19.175781 270.445312 20.542969 273.167969 21.980469 275.851562 C 23.414062 278.539062 24.917969 281.191406 26.484375 283.800781 C 28.050781 286.414062 29.679688 288.988281 31.371094 291.519531 C 33.0625 294.054688 34.816406 296.542969 36.632812 298.992188 C 38.445312 301.4375 40.320312 303.839844 42.253906 306.195312 C 44.1875 308.550781 46.175781 310.855469 48.222656 313.113281 C 50.265625 315.371094 52.367188 317.574219 54.519531 319.730469 C 56.675781 321.882812 58.878906 323.984375 61.136719 326.027344 C 63.394531 328.074219 65.699219 330.0625 68.054688 331.996094 C 70.410156 333.929688 72.8125 335.804688 75.257812 337.617188 C 77.707031 339.433594 80.195312 341.1875 82.726562 342.878906 C 85.261719 344.570312 87.835938 346.199219 90.449219 347.765625 C 93.058594 349.332031 95.710938 350.835938 98.398438 352.269531 C 101.082031 353.707031 103.804688 355.074219 106.558594 356.378906 C 109.3125 357.679688 112.097656 358.914062 114.910156 360.082031 C 117.726562 361.246094 120.566406 362.34375 123.433594 363.367188 C 126.304688 364.394531 129.195312 365.351562 132.109375 366.234375 C 135.023438 367.117188 137.960938 367.929688 140.914062 368.671875 C 143.871094 369.410156 146.84375 370.078125 149.832031 370.671875 C 152.816406 371.265625 155.820312 371.789062 158.832031 372.234375 C 161.84375 372.683594 164.867188 373.054688 167.898438 373.355469 C 170.929688 373.652344 173.96875 373.875 177.011719 374.027344 C 180.054688 374.175781 183.097656 374.25 186.144531 374.25 C 189.191406 374.25 192.234375 374.175781 195.277344 374.027344 C 198.320312 373.875 201.359375 373.652344 204.390625 373.355469 C 207.421875 373.054688 210.445312 372.683594 213.457031 372.234375 C 216.472656 371.789062 219.472656 371.265625 222.460938 370.671875 C 225.449219 370.078125 228.417969 369.410156 231.375 368.671875 C 234.328125 367.929688 237.265625 367.117188 240.179688 366.234375 C 243.09375 365.351562 245.988281 364.394531 248.855469 363.367188 C 251.722656 362.34375 254.566406 361.246094 257.378906 360.082031 C 260.195312 358.914062 262.980469 357.679688 265.734375 356.378906 C 268.488281 355.074219 271.207031 353.707031 273.894531 352.269531 C 276.582031 350.835938 279.230469 349.332031 281.84375 347.765625 C 284.457031 346.199219 287.027344 344.570312 289.5625 342.878906 C 292.09375 341.1875 294.585938 339.433594 297.03125 337.617188 C 299.480469 335.804688 301.878906 333.929688 304.234375 331.996094 C 306.589844 330.0625 308.894531 328.074219 311.152344 326.027344 C 313.410156 323.984375 315.617188 321.882812 317.769531 319.730469 C 319.925781 317.574219 322.023438 315.371094 324.070312 313.113281 C 326.117188 310.855469 328.105469 308.550781 330.039062 306.195312 C 331.96875 303.839844 333.84375 301.4375 335.660156 298.992188 C 337.472656 296.542969 339.226562 294.054688 340.917969 291.519531 C 342.613281 288.988281 344.242188 286.414062 345.808594 283.800781 C 347.375 281.191406 348.875 278.539062 350.3125 275.851562 C 351.746094 273.167969 353.117188 270.445312 354.417969 267.691406 C 355.722656 264.9375 356.957031 262.152344 358.121094 259.339844 C 359.285156 256.523438 360.382812 253.683594 361.410156 250.816406 C 362.433594 247.945312 363.390625 245.054688 364.273438 242.140625 C 365.160156 239.226562 365.972656 236.289062 366.710938 233.335938 C 367.453125 230.378906 368.121094 227.40625 368.714844 224.417969 C 369.308594 221.433594 369.828125 218.429688 370.277344 215.417969 C 370.722656 212.40625 371.09375 209.382812 371.394531 206.351562 C 371.691406 203.320312 371.917969 200.28125 372.066406 197.238281 C 372.214844 194.195312 372.289062 191.152344 372.289062 188.105469 C 372.289062 185.058594 372.214844 182.015625 372.066406 178.972656 C 371.917969 175.929688 371.691406 172.890625 371.394531 169.859375 C 371.09375 166.828125 370.722656 163.804688 370.277344 160.792969 C 369.828125 157.777344 369.308594 154.777344 368.714844 151.789062 C 368.121094 148.800781 367.453125 145.832031 366.710938 142.875 C 365.972656 139.921875 365.160156 136.984375 364.273438 134.070312 C 363.390625 131.15625 362.433594 128.261719 361.410156 125.394531 C 360.382812 122.527344 359.285156 119.683594 358.121094 116.871094 C 356.957031 114.054688 355.722656 111.269531 354.417969 108.515625 C 353.117188 105.761719 351.746094 103.042969 350.3125 100.355469 C 348.875 97.667969 347.375 95.019531 345.808594 92.40625 C 344.242188 89.792969 342.613281 87.222656 340.917969 84.6875 C 339.226562 82.15625 337.472656 79.664062 335.660156 77.21875 C 333.84375 74.769531 331.96875 72.371094 330.039062 70.015625 C 328.105469 67.660156 326.117188 65.355469 324.070312 63.097656 C 322.023438 60.839844 319.925781 58.632812 317.769531 56.480469 C 315.617188 54.324219 313.410156 52.226562 311.152344 50.179688 C 308.894531 48.132812 306.589844 46.144531 304.234375 44.210938 C 301.878906 42.28125 299.480469 40.40625 297.03125 38.589844 C 294.585938 36.777344 292.09375 35.023438 289.5625 33.332031 C 287.027344 31.636719 284.457031 30.007812 281.84375 28.441406 C 279.230469 26.875 276.582031 25.375 273.894531 23.9375 C 271.207031 22.503906 268.488281 21.132812 265.734375 19.832031 C 262.980469 18.527344 260.195312 17.292969 257.378906 16.128906 C 254.566406 14.964844 251.722656 13.867188 248.855469 12.839844 C 245.988281 11.816406 243.09375 10.859375 240.179688 9.976562 C 237.265625 9.089844 234.328125 8.277344 231.375 7.539062 C 228.417969 6.796875 225.449219 6.128906 222.460938 5.535156 C 219.472656 4.941406 216.472656 4.421875 213.457031 3.972656 C 210.445312 3.527344 207.421875 3.15625 204.390625 2.855469 C 201.359375 2.558594 198.320312 2.332031 195.277344 2.183594 C 192.234375 2.035156 189.191406 1.960938 186.144531 1.960938 Z M 186.144531 1.960938 "/>
<g clip-path="url(#clip1)" clip-rule="nonzero">
<path style=" stroke:none;fill-rule:nonzero;fill:rgb(100%,100%,100%);fill-opacity:1;" d="M 299.472656 69.425781 L 313.910156 69.425781 C 316.644531 69.425781 318.855469 67.21875 318.855469 64.496094 C 318.855469 61.765625 316.644531 59.558594 313.910156 59.558594 L 299.472656 59.558594 C 296.738281 59.558594 294.53125 61.765625 294.53125 64.496094 C 294.53125 67.21875 296.738281 69.425781 299.472656 69.425781 "/>
</g>
<g clip-path="url(#clip2)" clip-rule="nonzero">
<path style=" stroke:none;fill-rule:nonzero;fill:rgb(100%,100%,100%);fill-opacity:1;" d="M 61.746094 69.425781 L 231.128906 69.425781 C 233.859375 69.425781 236.070312 67.21875 236.070312 64.496094 C 236.070312 61.765625 233.859375 59.558594 231.128906 59.558594 L 61.746094 59.558594 C 59.015625 59.558594 56.804688 61.765625 56.804688 64.496094 C 56.804688 67.21875 59.015625 69.425781 61.746094 69.425781 "/>
</g>
<g clip-path="url(#clip3)" clip-rule="nonzero">
<path style=" stroke:none;fill-rule:nonzero;fill:rgb(100%,100%,100%);fill-opacity:1;" d="M 56.804688 99.597656 C 56.804688 102.324219 59.015625 104.527344 61.746094 104.527344 L 163.105469 104.527344 L 163.105469 361.445312 C 163.105469 364.171875 165.320312 366.375 168.050781 366.375 C 170.78125 366.375 172.988281 364.171875 172.988281 361.445312 L 172.988281 94.664062 L 61.746094 94.664062 C 59.015625 94.664062 56.804688 96.867188 56.804688 99.597656 "/>
</g>
<g clip-path="url(#clip4)" clip-rule="nonzero">
<path style=" stroke:none;fill-rule:nonzero;fill:rgb(100%,100%,100%);fill-opacity:1;" d="M 313.910156 94.664062 L 202.671875 94.664062 L 202.671875 306.414062 C 202.671875 309.140625 204.878906 311.347656 207.609375 311.347656 C 210.34375 311.347656 212.550781 309.140625 212.550781 306.414062 L 212.550781 104.527344 L 313.910156 104.527344 C 316.644531 104.527344 318.855469 102.324219 318.855469 99.597656 C 318.855469 96.867188 316.644531 94.664062 313.910156 94.664062 "/>
</g>
</g>
</svg>
